PathFileType	4	(X/Y/Z)	AB03\squats_1.trc
DataRate	CameraRate	NumFrames	NumMarkers	Units	OrigDataRate	OrigDataStartFrame	OrigNumFrames
200.000000	200.000000	4	35	mm	200.000000	38	309
Frame#	Time	C7			LSHO			STRN			LASI			RASI			LPSI			RPSI			LGTR			RGTR			LTHC			LTHL			LTHR			LKNE			LMKNE			LSHC			LSHL			LSHR			LANK			LMANK			LMT1			LMT5			LCAL			RTHC			RTHL			RTHR			RKNE			RMKNE			RSHC			RSHL			RSHR			RANK			RMANK			RMT1			RMT5			RCAL			
		X1	Y1	Z1	X2	Y2	Z2	X3	Y3	Z3	X4	Y4	Z4	X5	Y5	Z5	X6	Y6	Z6	X7	Y7	Z7	X8	Y8	Z8	X9	Y9	Z9	X10	Y10	Z10	X11	Y11	Z11	X12	Y12	Z12	X13	Y13	Z13	X14	Y14	Z14	X15	Y15	Z15	X16	Y16	Z16	X17	Y17	Z17	X18	Y18	Z18	X19	Y19	Z19	X20	Y20	Z20	X21	Y21	Z21	X22	Y22	Z22	X23	Y23	Z23	X24	Y24	Z24	X25	Y25	Z25	X26	Y26	Z26	X27	Y27	Z27	X28	Y28	Z28	X29	Y29	Z29	X30	Y30	Z30	X31	Y31	Z31	X32	Y32	Z32	X33	Y33	Z33	X34	Y34	Z34	X35	Y35	Z35	

39	24.68	-2174.307497523369	1461.120375921233	2474.078887028493	-2121.893982410892	1388.753688698783	2326.08974886389	-2100.083296197394	1290.824732775458	2483.810898354243	-2322.823005912606	970.0089321420617	2329.316944936643	-2324.618553503137	943.5220184953129	2648.159012118108	-2515.918345127708	1140.121877888546	2441.918472461386	-2512.00228374197	1135.602786270278	2546.38700453816	-2417.476480166969	967.4630790949511	2252.055860370592	-2406.0619946502	960.2824503872154	2721.755055998517	-2377.521099194746	850.2524792122514	2232.264088223911	-2261.779796822527	785.1075165549413	2346.563462274882	-2495.742139516655	735.5043117164354	2272.008950151446	-2285.91179402902	526.4445883494043	2221.777078780594	-2296.981612800484	484.7130211158234	2384.847346673739	-2341.604041608989	310.0131879828308	2159.353335509069	-2261.257550948437	273.6636833038636	2216.660329890251	-2392.129307220476	246.9023056452352	2227.983518364015	-2331.873199825601	123.0589489137458	2146.72007932768	-2297.28199122915	112.4563364671639	2242.322971253879	-2192.15059690819	58.25173064904529	2210.4514218609	-2219.030477253629	55.94088734425846	2104.037902963461	-2406.255962178193	70.87741486560132	2200.52380126452	-2472.999665752601	666.1084434361289	2649.619584599132	-2384.406876468855	795.4021316417318	2746.328476732155	-2247.124617524728	783.2265821921975	2622.479193678157	-2257.880721320792	527.3525174814547	2740.400316478662	-2232.31793659881	498.7067368164346	2586.728692562509	-2369.060714106871	221.121157395813	2715.676251334453	-2304.839090001855	320.1924473137964	2784.682090215077	-2245.426841863258	269.3505867370486	2726.508255617025	-2325.670263370521	118.2104781686193	2790.475849179054	-2305.476456762244	115.7055398192978	2697.604904157678	-2177.899596978453	48.6417309000585	2707.353248251435	-2204.492845539531	56.31293517306198	2822.592696815584	-2400.930958193297	69.13475106775165	2740.278199931417	
40	24.685	-2172.778780557129	1457.629228174946	2474.049573602497	-2120.351574727798	1384.824890375093	2326.492558607559	-2099.438630587898	1286.939124360262	2483.976756827432	-2324.166434352909	967.935213526	2329.526453645014	-2326.064544085526	941.5551229669245	2648.348858037244	-2516.642125780862	1138.962426421946	2442.07702218121	-2512.7462425536	1134.424988049297	2546.551821096985	-2418.893776728775	966.2952554160825	2252.003502827567	-2407.330985367012	958.9417740882064	2722.121721703746	-2378.808531274054	849.5035359467971	2232.208067925971	-2262.743636870168	785.1098445136657	2346.47270142722	-2496.515343048784	734.1846071856696	2271.852670247985	-2285.371910350291	526.3783106040007	2221.495322742637	-2296.25791513024	484.6580436049382	2384.505884262384	-2341.284810688784	309.9541153600052	2159.272134510132	-2260.95174104186	273.5494914670172	2216.549469134212	-2391.897956020977	246.9772529552768	2227.947599692835	-2331.857521593654	123.0593746733687	2146.723723793504	-2297.289399908825	112.4324625009052	2242.363892885089	-2192.158745505707	58.23361928564371	2210.460399224067	-2219.033675440952	55.97811091510016	2104.059556799465	-2406.257562651409	70.86419862790679	2200.524792298592	-2473.523433061888	664.9178418376709	2650.207424084973	-2385.391527720297	794.5802966744037	2746.677377490039	-2248.227870095546	783.0942673864727	2622.577557479175	-2257.58366088938	527.2936587992149	2740.863148006111	-2231.960512857999	498.7463811716602	2587.196419546161	-2368.943425586451	221.1647665601408	2715.825918460092	-2304.66481186513	320.1157413657821	2784.945892846499	-2245.264844400225	269.2915945090036	2726.736070651302	-2325.658419155167	118.173138923363	2790.52001815324	-2305.461100198141	115.7206294318001	2697.674878851471	-2177.902675026095	48.66215368294422	2707.367656447188	-2204.50868558191	56.3007209983522	2822.620392486434	-2400.932146466388	69.12562224394451	2740.285820184915	
41	24.69	-2171.275750185888	1454.1044916524	2474.020533795633	-2118.829953630496	1380.870003358114	2326.897777317558	-2098.812961421489	1283.02304453895	2484.140228077496	-2325.486388288129	965.8286637337362	2329.729752365033	-2327.487016412313	939.5812772060036	2648.545459968591	-2517.354208518254	1137.768458853873	2442.225222715536	-2513.482658895517	1133.216445646095	2546.70626883162	-2420.300209662015	965.1035073789817	2251.954974643196	-2408.585173139134	957.5958604907286	2722.484359756517	-2380.097607884119	848.7402645243316	2232.13854721603	-2263.69113921824	785.1064548923601	2346.344502415512	-2497.280112286786	732.8503783131519	2271.703338462019	-2284.823257699506	526.3097945176651	2221.19951965416	-2295.521648345059	484.6027754080702	2384.152452251049	-2340.960946049469	309.8931397465421	2159.181294151748	-2260.642837852493	273.4322980464856	2216.431282814576	-2391.663907704826	247.0556244937226	2227.903058249871	-2331.844314877228	123.0584271922246	2146.72383819669	-2297.298899305793	112.4098077421569	2242.399489491494	-2192.1680324136	58.2177030572274	2210.467564295281	-2219.038387252121	56.01433141799289	2104.081245388998	-2406.260437887904	70.84931203099519	2200.524149793449	-2474.039328570953	663.7246987335336	2650.784956813574	-2386.360823666625	793.747609253209	2747.019951399127	-2249.321225325933	782.9449769124481	2622.668143820592	-2257.276695917721	527.2312749045772	2741.31931245338	-2231.608891695743	498.7779774627477	2587.656351923715	-2368.825562881596	221.2076849738954	2715.976395670447	-2304.482432781905	320.0397690265533	2785.206711775698	-2245.09949131392	269.2265127533964	2726.95854648684	-2325.649405987478	118.1343333655759	2790.563229412317	-2305.447036327265	115.7344922404421	2697.745321603153	-2177.907176562087	48.68276616706197	2707.380389856971	-2204.525000632688	56.29088066642721	2822.645453635575	-2400.934326613064	69.11549209036333	2740.293327118078	
42	24.695	-2169.798752988335	1450.547364620715	2473.992240776879	-2117.329069065892	1376.891117542329	2327.304215261222	-2098.207136231348	1279.076826699601	2484.30195858642	-2326.78232169309	963.691045745397	2329.925093243095	-2328.885426156073	937.5993274895184	2648.74826830029	-2518.054809148735	1136.539951458923	2442.363850853064	-2514.211015665947	1131.977170045502	2546.850883972226	-2421.696168753404	963.8882508272712	2251.911392642061	-2409.824526390802	956.2445106374082	2722.84161500079	-2381.386376991349	847.9624460295166	2232.056187028561	-2264.622117035358	785.0964914538305	2346.181953460233	-2498.034618250228	731.5015683138438	2271.559661526444	-2284.263947716438	526.2390926126999	2220.889497730777	-2294.77375865541	484.5465600023784	2383.786876446054	-2340.631012018662	309.8305936704221	2159.079599450735	-2260.330510624434	273.3121096171685	2216.305678232643	-2391.426688507301	247.1378670303846	2227.848618919525	-2331.833295915403	123.0561115848124	2146.719988926469	-2297.310275483201	112.3884817346285	2242.42926478751	-2192.178252450761	58.20409248112499	2210.472828710328	-2219.044559121809	56.04918586669669	2104.102867862117	-2406.264523778001	70.83301302309229	2200.521918839519	-2474.547734821783	662.5293739874185	2651.352311163332	-2387.3151921515	792.9042653262513	2747.356356722381	-2250.404133895326	782.779159625225	2622.751864899896	-2256.960069939979	527.1652680227473	2741.769074333798	-2231.264290751662	498.8011325595772	2588.108759237389	-2368.707097457373	221.2500774436896	2716.127780419866	-2304.292145575388	319.9644211350076	2785.464895582633	-2244.930851184582	269.155579625905	2727.176330699584	-2325.643262596906	118.0941072610217	2790.605649747442	-2305.434367662381	115.7473442698865	2697.815949460656	-2177.913087159991	48.70366174165684	2707.391530153048	-2204.541663680958	56.28332425607386	2822.66805091662	-2400.937508152685	69.10443563753675	2740.300777688939	
